<?xml version="1.0" encoding="UTF-8" standalone="no"?>
<svg
        width="530"
        height="829"
        viewBox="0 0 530 829"
        fill="none"
        version="1.1"
        id="svg154"
        sodipodi:docname="judge-room.svg"
        inkscape:version="1.3.1 (9b9bdc1480, 2023-11-25, custom)"
        xmlns:inkscape="http://www.inkscape.org/namespaces/inkscape"
        xmlns:sodipodi="http://sodipodi.sourceforge.net/DTD/sodipodi-0.dtd"
        xmlns="http://www.w3.org/2000/svg"
        xmlns:svg="http://www.w3.org/2000/svg">
    <defs
            id="defs154" />
    <sodipodi:namedview
            id="namedview154"
            pagecolor="#ffffff"
            bordercolor="#999999"
            borderopacity="1"
            inkscape:showpageshadow="2"
            inkscape:pageopacity="0"
            inkscape:pagecheckerboard="0"
            inkscape:deskcolor="#d1d1d1"
            inkscape:zoom="1"
            inkscape:cx="234.5"
            inkscape:cy="308"
            inkscape:window-width="1780"
            inkscape:window-height="1144"
            inkscape:window-x="0"
            inkscape:window-y="0"
            inkscape:window-maximized="1"
            inkscape:current-layer="svg154" />
    <path
            d="M193 751V761H529V1H1V761H60V751H11.5V11.5H518.5V751H193Z"
            fill="black"
            id="path81" />
    <path
            d="M193 761V751H518.5V11.5H11.5V751H60V761M193 761H529V1H1V761H60M193 761L194 828L190.36 826.703C164.416 817.459 141.946 800.455 126 778V778V778C111.746 800.354 90.4125 817.287 65.407 826.095L60 828V761"
            stroke="black"
            id="path82" />
    <rect
            x="239.5"
            y="372.5"
            width="52"
            height="106"
            rx="7.5"
            fill="#EAE3B2"
            id="rect87" />
    <rect
            x="239.5"
            y="372.5"
            width="52"
            height="106"
            rx="7.5"
            fill="#EAE3B2"
            id="rect88" />
    <rect
            x="239.5"
            y="372.5"
            width="52"
            height="106"
            rx="7.5"
            stroke="black"
            id="rect89" />
    <path
            d="M254.273 446.415H263V447.472H255.21V451.869H263V452.926H254.273V446.415ZM265.455 444.419H256.455V443.448H257.494V443.328C257.381 443.255 257.236 443.152 257.06 443.022C256.881 442.888 256.722 442.698 256.582 442.451C256.44 442.201 256.369 441.863 256.369 441.436C256.369 440.885 256.507 440.4 256.783 439.979C257.058 439.559 257.449 439.23 257.955 438.995C258.46 438.759 259.057 438.641 259.744 438.641C260.438 438.641 261.038 438.759 261.547 438.995C262.053 439.23 262.445 439.557 262.723 439.975C262.999 440.392 263.136 440.874 263.136 441.419C263.136 441.84 263.067 442.176 262.928 442.429C262.786 442.682 262.625 442.877 262.446 443.013C262.264 443.15 262.114 443.255 261.994 443.328V443.414H265.455V444.419ZM259.727 443.431C260.222 443.431 260.658 443.358 261.036 443.213C261.411 443.069 261.705 442.857 261.918 442.578C262.128 442.3 262.233 441.959 262.233 441.556C262.233 441.135 262.122 440.784 261.901 440.503C261.676 440.219 261.375 440.006 260.997 439.864C260.616 439.719 260.193 439.647 259.727 439.647C259.267 439.647 258.852 439.718 258.483 439.86C258.111 439.999 257.817 440.211 257.601 440.495C257.382 440.776 257.273 441.13 257.273 441.556C257.273 441.965 257.376 442.309 257.584 442.587C257.788 442.865 258.075 443.076 258.445 443.218C258.811 443.36 259.239 443.431 259.727 443.431ZM263.136 434.448C263.136 435.039 262.996 435.557 262.714 436.003C262.433 436.446 262.04 436.793 261.534 437.043C261.028 437.29 260.437 437.414 259.761 437.414C259.08 437.414 258.484 437.29 257.976 437.043C257.467 436.793 257.072 436.446 256.791 436.003C256.51 435.557 256.369 435.039 256.369 434.448C256.369 433.857 256.51 433.34 256.791 432.897C257.072 432.451 257.467 432.104 257.976 431.857C258.484 431.607 259.08 431.482 259.761 431.482C260.437 431.482 261.028 431.607 261.534 431.857C262.04 432.104 262.433 432.451 262.714 432.897C262.996 433.34 263.136 433.857 263.136 434.448ZM262.233 434.448C262.233 433.999 262.118 433.63 261.888 433.34C261.658 433.05 261.355 432.836 260.98 432.696C260.605 432.557 260.199 432.488 259.761 432.488C259.324 432.488 258.916 432.557 258.538 432.696C258.161 432.836 257.855 433.05 257.622 433.34C257.389 433.63 257.273 433.999 257.273 434.448C257.273 434.897 257.389 435.266 257.622 435.556C257.855 435.846 258.161 436.06 258.538 436.199C258.916 436.338 259.324 436.408 259.761 436.408C260.199 436.408 260.605 436.338 260.98 436.199C261.355 436.06 261.658 435.846 261.888 435.556C262.118 435.266 262.233 434.897 262.233 434.448ZM263.136 427.202C263.136 427.833 262.997 428.377 262.719 428.835C262.438 429.289 262.045 429.64 261.543 429.887C261.037 430.131 260.449 430.254 259.778 430.254C259.108 430.254 258.517 430.131 258.006 429.887C257.491 429.64 257.091 429.296 256.804 428.856C256.514 428.413 256.369 427.896 256.369 427.305C256.369 426.964 256.426 426.627 256.54 426.295C256.653 425.962 256.838 425.66 257.094 425.387C257.347 425.114 257.682 424.897 258.099 424.735C258.517 424.573 259.031 424.492 259.642 424.492H260.068V429.538H259.199V425.515C258.83 425.515 258.5 425.589 258.21 425.737C257.92 425.881 257.692 426.089 257.524 426.359C257.357 426.626 257.273 426.941 257.273 427.305C257.273 427.705 257.372 428.052 257.571 428.344C257.767 428.634 258.023 428.857 258.338 429.013C258.653 429.17 258.991 429.248 259.352 429.248H259.932C260.426 429.248 260.845 429.163 261.189 428.992C261.53 428.819 261.79 428.579 261.969 428.272C262.145 427.965 262.233 427.609 262.233 427.202C262.233 426.938 262.196 426.7 262.122 426.487C262.045 426.271 261.932 426.085 261.781 425.928C261.628 425.772 261.437 425.651 261.21 425.566L261.483 424.594C261.812 424.697 262.102 424.869 262.352 425.11C262.599 425.352 262.793 425.65 262.932 426.005C263.068 426.36 263.136 426.759 263.136 427.202ZM263 422.962H256.455V421.957H259.301V421.292L256.455 418.94V417.644L259.608 420.286L263 417.61V418.906L260.239 421.053V421.957H263V422.962ZM257.392 416.892H256.455V411.574H257.392V413.722H263V414.727H257.392V416.892ZM263.136 407.788C263.136 408.379 262.996 408.897 262.714 409.343C262.433 409.786 262.04 410.133 261.534 410.383C261.028 410.63 260.437 410.754 259.761 410.754C259.08 410.754 258.484 410.63 257.976 410.383C257.467 410.133 257.072 409.786 256.791 409.343C256.51 408.897 256.369 408.379 256.369 407.788C256.369 407.197 256.51 406.68 256.791 406.237C257.072 405.79 257.467 405.444 257.976 405.197C258.484 404.947 259.08 404.822 259.761 404.822C260.437 404.822 261.028 404.947 261.534 405.197C262.04 405.444 262.433 405.79 262.714 406.237C262.996 406.68 263.136 407.197 263.136 407.788ZM262.233 407.788C262.233 407.339 262.118 406.969 261.888 406.68C261.658 406.39 261.355 406.175 260.98 406.036C260.605 405.897 260.199 405.827 259.761 405.827C259.324 405.827 258.916 405.897 258.538 406.036C258.161 406.175 257.855 406.39 257.622 406.68C257.389 406.969 257.273 407.339 257.273 407.788C257.273 408.237 257.389 408.606 257.622 408.896C257.855 409.185 258.161 409.4 258.538 409.539C258.916 409.678 259.324 409.748 259.761 409.748C260.199 409.748 260.605 409.678 260.98 409.539C261.355 409.4 261.658 409.185 261.888 408.896C262.118 408.606 262.233 408.237 262.233 407.788ZM265.455 403.287H256.455V402.315H257.494V402.196C257.381 402.122 257.236 402.02 257.06 401.889C256.881 401.755 256.722 401.565 256.582 401.318C256.44 401.068 256.369 400.73 256.369 400.304C256.369 399.752 256.507 399.267 256.783 398.846C257.058 398.426 257.449 398.098 257.955 397.862C258.46 397.626 259.057 397.508 259.744 397.508C260.438 397.508 261.038 397.626 261.547 397.862C262.053 398.098 262.445 398.424 262.723 398.842C262.999 399.26 263.136 399.741 263.136 400.287C263.136 400.707 263.067 401.044 262.928 401.297C262.786 401.549 262.625 401.744 262.446 401.88C262.264 402.017 262.114 402.122 261.994 402.196V402.281H265.455V403.287ZM259.727 402.298C260.222 402.298 260.658 402.225 261.036 402.081C261.411 401.936 261.705 401.724 261.918 401.446C262.128 401.167 262.233 400.826 262.233 400.423C262.233 400.002 262.122 399.652 261.901 399.37C261.676 399.086 261.375 398.873 260.997 398.731C260.616 398.586 260.193 398.514 259.727 398.514C259.267 398.514 258.852 398.585 258.483 398.727C258.111 398.866 257.817 399.078 257.601 399.362C257.382 399.643 257.273 399.997 257.273 400.423C257.273 400.832 257.376 401.176 257.584 401.454C257.788 401.733 258.075 401.943 258.445 402.085C258.811 402.227 259.239 402.298 259.727 402.298Z"
            fill="black"
            id="path89" />
    <g
            id="g178">
        <g
                id="table22"
                inkscape:label="table22">
            <path
                    d="M342.062 276.482C342.021 276.65 342 276.822 342 276.994C342 279.058 342.001 281.124 342.026 283.24C342.079 284.146 342.592 285.757 342.592 285.757C342.592 285.757 343.463 287.74 343.56 288.683C343.627 289.329 343.7 289.977 343.812 290.61C344.042 291.914 344.583 292.971 345.362 293.794C346.118 294.593 346.975 295.115 347.954 295.119C351.377 295.135 364.893 295.125 361.435 295.125C361.321 295.125 361.663 295.125 361.78 295.125C361.78 295.833 361.78 296.498 361.78 297.144C361.537 297.19 362.067 297.196 361.852 297.285C361.61 297.385 361.48 297.658 361.539 297.999C361.592 298.305 361.704 298.572 362.001 298.566C362.483 298.554 362.2 298.562 362.681 298.562C363.954 298.563 365.227 298.56 366.501 298.564C366.948 298.565 367.34 298.918 367.44 299.394C367.523 299.792 367.351 300.327 367.013 300.538C366.815 300.661 366.573 300.703 366.35 300.704C362.755 300.714 366.043 300.713 362.448 300.707C362.155 300.707 361.858 300.683 361.569 300.618C361.114 300.516 360.87 299.834 361.009 299.318C361.129 298.872 361.467 298.563 361.954 298.563C363.334 298.562 370.067 298.566 364.565 298.556C364.68 298.556 364.816 298.506 364.905 298.415C365.073 298.241 365.154 297.992 365.062 297.705C364.952 297.366 364.75 297.185 364.474 297.19C369.864 297.214 363.017 297.209 361.526 297.284C360.157 297.353 359.523 299.498 360.218 300.965C360.455 301.465 360.831 301.686 361.164 302C365.447 302 362.847 302 367.167 301.969C367.61 301.786 367.922 301.47 368.162 301.003C368.747 299.87 368.5 298.365 367.683 297.622C367.307 297.281 366.887 297.228 366.467 297.197C365.947 297.158 365.424 297.188 364.891 297.188C364.891 296.488 364.891 295.823 364.891 295.125C365.8 295.125 366.697 295.131 367.593 295.121C367.811 295.119 368.034 295.094 368.248 295.034C369.838 294.588 371.07 292.576 371.049 290.37C371.025 287.75 371.044 285.13 371.044 282.509C371.044 282.37 371.044 282.231 371.044 282.081C371.911 282.081 372.751 282.081 373.613 282.081C373.613 282.239 373.613 282.379 373.613 282.519C373.613 285.942 373.61 289.364 373.616 292.787C373.617 293.135 373.638 293.496 373.709 293.828C374.009 295.221 374.941 296.027 376.011 295.805C376.653 295.672 377.205 295.218 377.447 294.425C377.795 293.282 378.074 292.089 378.288 290.888C378.557 289.378 378.757 287.843 378.935 286.308C379.066 285.172 379.114 284.019 379.202 282.873C379.208 282.802 379.243 282.734 379.264 282.664C379.264 280.915 379.264 279.166 379.238 277.362C379.165 276.52 379.13 275.731 379.068 274.946C378.995 274.015 378.939 273.075 378.8 272.159C378.581 270.711 378.335 269.265 378.031 267.845C377.84 266.956 377.696 266.036 377.284 265.237C376.75 264.204 375.627 263.932 374.875 264.374C373.776 265.018 373.579 266.341 373.619 267.589C373.632 268 373.911 268.323 374.168 268.312C374.469 268.299 374.632 268.001 374.643 267.485C374.648 267.221 374.678 266.957 374.705 266.694C374.763 266.144 375.085 265.648 375.431 265.563C375.914 265.445 376.386 265.704 376.551 266.308C376.824 267.301 377.089 268.308 377.261 269.337C377.542 271.016 377.772 272.712 377.972 274.411C378.106 275.546 378.21 276.699 378.224 277.847C378.253 280.218 378.302 282.596 378.046 284.957C377.948 285.856 377.906 286.769 377.776 287.659C377.596 288.893 377.381 290.12 377.135 291.333C376.966 292.166 376.727 292.975 376.505 293.788C376.324 294.45 375.533 294.597 375.16 294.26C374.73 293.871 374.646 293.327 374.645 292.742C374.637 285.339 374.64 277.936 374.64 270.533L374.64 270.529C374.64 270.45 374.645 270.371 374.64 270.293C374.64 270.287 374.64 270.281 374.639 270.275C374.612 269.92 374.464 269.712 374.198 269.69C373.804 269.659 373.615 269.962 373.613 270.622C373.613 270.624 373.613 270.627 373.613 270.629C373.611 272.92 373.613 275.212 373.613 277.503C373.613 277.64 373.613 277.778 373.613 277.914C372.739 277.914 371.899 277.914 371.044 277.914C371.044 277.751 371.044 277.61 371.044 277.469C371.044 274.877 371.046 272.286 371.041 269.694C371.04 269.387 371.019 269.075 370.977 268.773C370.724 266.961 369.929 265.75 368.642 265.141C368.296 264.977 367.913 264.902 367.544 264.887C366.661 264.851 365.777 264.875 364.896 264.875C364.896 264.162 364.896 263.497 364.896 262.856C365.582 262.812 366.249 262.767 366.916 262.727C367.947 262.664 368.714 261.13 368.421 259.768C368.225 258.854 367.781 258.296 367.126 258C362.886 258 365.528 258 361.251 258.031C360.004 258.506 359.612 260.377 360.206 261.661C360.616 262.548 361.263 262.8 361.975 262.806C364.093 262.824 359.329 262.812 361.447 262.812C361.56 262.812 361.673 262.812 361.775 262.812C361.775 263.532 361.775 264.196 361.775 264.875C361.681 264.875 361.46 264.875 361.534 264.875C365.089 264.875 351.67 264.886 348.344 264.867C347.466 264.862 346.66 265.112 345.906 265.716C344.972 266.464 344.263 267.475 343.947 268.876V268.876C343.556 270.612 343.306 272.382 342.789 274.085L342.062 276.482V276.482ZM344.028 286.145C343.482 284.922 343.071 283.63 343.031 282.291V282.291C343.022 280.587 343.028 278.883 343.028 277.179V277.179C343.028 276.98 343.062 276.783 343.127 276.595L343.824 274.585C344.246 273.369 344.481 272.101 344.629 270.823C344.641 270.717 344.654 270.61 344.668 270.504C344.809 269.418 345.129 268.453 345.736 267.654C346.378 266.809 347.126 266.268 348.011 266.264C353.393 266.236 361.985 266.246 367.368 266.26C367.703 266.261 368.047 266.371 368.371 266.5C369.326 266.881 370.014 268.291 370.014 269.549C370.018 276.35 370.012 283.151 370.022 289.953C370.023 290.74 369.942 291.482 369.624 292.146C369.171 293.094 368.516 293.729 367.676 293.734C362.176 293.765 353.466 293.75 347.966 293.749C347.881 293.749 347.792 293.761 347.711 293.735C346.892 293.477 346.162 293.028 345.592 292.149C345.201 291.547 344.9 290.894 344.785 290.122C344.67 289.351 344.601 288.567 344.532 287.785C344.528 287.75 344.525 287.715 344.522 287.68C344.486 287.273 344.277 286.701 344.028 286.145ZM364.857 261.438C363.872 261.438 362.888 261.45 361.903 261.43C361.581 261.424 361.284 261.31 361.088 260.883C360.908 260.491 360.935 260.13 361.106 259.788C361.327 259.347 361.691 259.292 362.049 259.292C364.671 259.287 360.41 259.289 363.031 259.289C364.166 259.289 365.3 259.286 366.434 259.29C366.989 259.293 367.401 259.698 367.449 260.246C367.495 260.763 367.156 261.442 366.481 261.44C363.667 261.433 367.735 261.438 364.857 261.438ZM372.809 280.688C372.225 280.688 371.641 280.688 371.062 280.688C371.062 280.202 371.062 279.766 371.062 279.337C371.92 279.337 372.76 279.337 373.594 279.337C373.594 279.798 373.594 280.234 373.594 280.688C373.341 280.688 373.107 280.688 372.809 280.688ZM363.243 297.188C363.108 297.188 362.973 297.188 362.841 297.188C362.841 296.475 362.841 295.81 362.841 295.149C363.184 295.149 363.51 295.149 363.833 295.149C363.833 295.838 363.833 296.503 363.833 297.188C363.645 297.188 363.475 297.188 363.243 297.188ZM363.555 264.875C363.314 264.875 363.072 264.875 362.844 264.875C362.844 264.153 362.844 263.488 362.844 262.841C363.191 262.841 363.517 262.841 363.851 262.841C363.851 263.441 363.84 264.014 363.855 264.585C363.863 264.848 363.785 264.909 363.555 264.875Z"
                    fill="black"
                    id="path1" />
            <path
                    d="M344.028 286.145C343.482 284.922 343.071 283.63 343.031 282.291V282.291C343.022 280.587 343.028 278.883 343.028 277.179V277.179C343.028 276.98 343.062 276.783 343.127 276.595L343.824 274.585C344.246 273.369 344.481 272.101 344.629 270.823C344.641 270.717 344.654 270.61 344.668 270.504C344.809 269.418 345.129 268.453 345.736 267.654C346.378 266.809 347.126 266.268 348.011 266.264C353.393 266.236 361.985 266.246 367.368 266.26C367.703 266.261 368.047 266.371 368.371 266.5C369.326 266.881 370.014 268.291 370.014 269.549C370.018 276.35 370.012 283.151 370.022 289.953C370.023 290.74 369.942 291.482 369.624 292.146C369.171 293.094 368.516 293.729 367.676 293.734C362.176 293.765 353.466 293.75 347.966 293.749C347.881 293.749 347.792 293.761 347.711 293.735C346.892 293.477 346.162 293.028 345.592 292.149C345.201 291.547 344.9 290.894 344.785 290.122C344.67 289.351 344.601 288.567 344.532 287.785L344.522 287.68C344.486 287.273 344.277 286.701 344.028 286.145Z"
                    fill="#CDCDCD"
                    id="path2" />
            <path
                    d="M373.619 267.589C373.632 268 373.911 268.323 374.168 268.312C374.469 268.299 374.632 268.001 374.643 267.485L374.64 270.293C374.64 270.287 374.64 270.281 374.639 270.275C374.612 269.92 374.464 269.712 374.198 269.69C373.804 269.659 373.615 269.962 373.613 270.622L373.619 267.589Z"
                    fill="black"
                    id="path3" />
            <path
                    d="M374.643 267.485C374.648 267.221 374.678 266.957 374.705 266.694C374.763 266.144 375.085 265.648 375.431 265.563C375.914 265.445 376.386 265.704 376.551 266.308C376.824 267.301 377.089 268.308 377.261 269.337C377.542 271.016 377.772 272.712 377.972 274.411C378.106 275.546 378.21 276.699 378.224 277.847C378.253 280.218 378.302 282.596 378.046 284.957C377.948 285.856 377.906 286.769 377.776 287.659C377.596 288.893 377.381 290.12 377.135 291.333C376.966 292.166 376.727 292.975 376.505 293.788C376.324 294.45 375.533 294.597 375.16 294.26C374.73 293.871 374.646 293.327 374.645 292.742C374.637 285.339 374.64 277.936 374.64 270.533L374.64 270.529C374.64 270.45 374.645 270.371 374.64 270.293L374.643 267.485Z"
                    fill="#CDCDCD"
                    id="path4" />
            <rect
                    x="292.5"
                    y="251.5"
                    width="57"
                    height="57"
                    rx="7.5"
                    fill="#EAE3B2"
                    id="rect90" />
            <rect
                    x="292.5"
                    y="251.5"
                    width="57"
                    height="57"
                    rx="7.5"
                    fill="#EAE3B2"
                    id="rect91" />
            <rect
                    x="292.5"
                    y="251.5"
                    width="57"
                    height="57"
                    rx="7.5"
                    stroke="black"
                    id="rect92" />
        </g>

    </g>

    <path
            d="M25 522H21V518.5L38 509.5H46.5L63.5 519V522.5H60L46.5 514.5H38L25 522Z"
            fill="black"
            stroke="black"
            id="path83" />
    <path
            d="M25 335.5H21V339L38 348H46.5L63.5 338.5V335H60L46.5 343H38L25 335.5Z"
            fill="black"
            stroke="black"
            id="path84" />
    <path
            fill-rule="evenodd"
            clip-rule="evenodd"
            d="M38.5 519C38.5 533 41.1667 546.5 42.5 551.5H46V307.027C44.9126 310.433 42.2871 319.137 40.5 329C39.474 334.663 39.0984 341.095 38.7863 346.44C38.6905 348.08 38.6008 349.618 38.5 351V519Z"
            fill="#242424"
            id="path153" />
    <path
            d="M38.5 519C38.5 533 41.1667 546.5 42.5 551.5H46M38.5 519C38.5 505 38.5 401.167 38.5 351M38.5 519V351M38.5 351C38.6008 349.618 38.6905 348.08 38.7863 346.44C39.0984 341.095 39.474 334.663 40.5 329C42.2871 319.137 44.9126 310.433 46 307.027M46 307V307.027M46 551.5H49V305.5H46.5C46.5 305.5 46.3142 306.042 46 307.027M46 551.5V307.027"
            stroke="black"
            id="path154" />
    <rect
            x="46"
            y="306"
            width="3"
            height="245"
            fill="#D9D9D9"
            id="rect154" />
</svg>
